# xmcd
#
# Track frame offsets:
#	150
#	15392
#	31505
#	47650
#	61825
#	84665
#	101630
#	117780
#	138725
#	157102
#	167872
#	183747
#	199190
#	215392
#	233645
#	249720
#	267137
#	285192
#	307887
#	320625
#
# Disc length: 4420 seconds
#
# Revision: 1987374162
# Processed by: cddbd v1.5.2PL0 Copyright (c) Steve Scherf et al.
# Submitted via: EZCDAudioConverter 8.1.0.1
#
DISCID=11114214
DTITLE=The Rolling Stones - The Very Best Of Rolling Stones 1975-1994 Vol. 2 (
DTITLE=Platinum)
DYEAR=1994
DGENRE=Blues Rock
TTITLE0=Harlem Shuffle
TTITLE1=Start Me Up
TTITLE2=Miss You
TTITLE3=Respectable
TTITLE4=Sex Drive
TTITLE5=Love Is A Strong
TTITLE6=Sad Sad Sad
TTITLE7=Manish Boy
TTITLE8=Fool To Cry
TTITLE9=Hang Fire
TTITLE10=Hot Stuff
TTITLE11=Beast Of Burden
TTITLE12=You Got Me Rocking
TTITLE13=Crazy Mama
TTITLE14=Hold On To Your Hat
TTITLE15=Dirty Work
TTITLE16=Mixed Emotion
TTITLE17=It Must Be Hell
TTITLE18=New Faces
TTITLE19=The Worst
EXTD=
EXTT0=
EXTT1=
EXTT2=
EXTT3=
EXTT4=
EXTT5=
EXTT6=
EXTT7=
EXTT8=
EXTT9=
EXTT10=
EXTT11=
EXTT12=
EXTT13=
EXTT14=
EXTT15=
EXTT16=
EXTT17=
EXTT18=
EXTT19=
PLAYORDER=
